P3
10 10
255
128 128 128 138 138 138 128 128 128 127 127 127 128 128 128 128 128 128 159 159 159 106 106 106 149 149 149 138 138 138 
160 160 160 128 128 128 149 149 149 149 149 149 159 159 159 106 106 106 138 138 138 106 106 106 106 106 106 213 213 213 
106 106 106 138 138 138 106 106 106 106 106 106 213 213 213 128 128 128 138 138 138 128 128 128 127 127 127 128 128 128 
128 128 128 159 159 159 106 106 106 149 149 149 138 138 138 160 160 160 128 128 128 149 149 149 149 149 149 159 159 159 
96 96 96 202 202 202 106 106 106 117 117 117 159 159 159 128 128 128 138 138 138 128 128 128 127 127 127 128 128 128 
128 128 128 128 128 128 159 159 159 106 106 106 149 149 149 106 106 106 138 138 138 106 106 106 106 106 106 213 213 213 
159 159 159 106 106 106 149 149 149 138 138 138 160 160 160 128 128 128 149 149 149 149 149 149 159 159 159 106 106 106 
106 106 106 149 149 149 138 138 138 160 160 160 128 128 128 149 149 149 149 149 149 159 159 159 106 106 106 138 138 138 
149 149 149 138 138 138 160 160 160 128 128 128 149 149 149 149 149 149 159 159 159 106 106 106 138 138 138 106 106 106 
138 138 138 160 160 160 128 128 128 149 149 149 149 149 149 159 159 159 106 106 106 138 138 138 106 106 106 159 159 159 
