P3
10 10
255
86 86 86 148 148 148 160 160 160 93 93 93 95 95 95 70 70 70 212 212 212 95 95 95 153 153 153 139 139 139 
192 192 192 169 169 169 218 218 218 104 104 104 152 152 152 151 151 151 89 89 89 66 66 66 139 139 139 212 212 212 
151 151 151 89 89 89 66 66 66 139 139 139 212 212 212 86 86 86 148 148 148 160 160 160 93 93 93 95 95 95 
70 70 70 212 212 212 95 95 95 153 153 153 139 139 139 192 192 192 169 169 169 218 218 218 104 104 104 152 152 152 
112 112 112 182 182 182 98 98 98 72 72 72 162 162 162 86 86 86 148 148 148 160 160 160 93 93 93 95 95 95 
95 95 95 70 70 70 212 212 212 95 95 95 153 153 153 151 151 151 89 89 89 66 66 66 139 139 139 212 212 212 
212 212 212 95 95 95 153 153 153 139 139 139 192 192 192 169 169 169 218 218 218 104 104 104 152 152 152 151 151 151 
95 95 95 153 153 153 139 139 139 192 192 192 169 169 169 218 218 218 104 104 104 152 152 152 151 151 151 89 89 89 
153 153 153 139 139 139 192 192 192 169 169 169 218 218 218 104 104 104 152 152 152 151 151 151 89 89 89 66 66 66 
139 139 139 192 192 192 169 169 169 218 218 218 104 104 104 152 152 152 151 151 151 89 89 89 66 66 66 212 212 212 
