P3
10 10
255
128 0 0 255 0 0 64 0 0 32 0 0 192 0 0 160 0 0 96 0 0 224 0 0 128 0 0 192 0 0 
96 0 0 128 0 0 160 0 0 224 0 0 255 0 0 32 0 0 128 0 0 160 0 0 96 0 0 160 0 0 
32 0 0 128 0 0 160 0 0 96 0 0 160 0 0 128 0 0 255 0 0 64 0 0 32 0 0 192 0 0 
160 0 0 96 0 0 224 0 0 128 0 0 192 0 0 96 0 0 128 0 0 160 0 0 224 0 0 255 0 0 
64 0 0 255 0 0 96 0 0 192 0 0 32 0 0 128 0 0 255 0 0 64 0 0 32 0 0 192 0 0 
192 0 0 160 0 0 96 0 0 224 0 0 128 0 0 32 0 0 128 0 0 160 0 0 96 0 0 160 0 0 
96 0 0 224 0 0 128 0 0 192 0 0 96 0 0 128 0 0 160 0 0 224 0 0 255 0 0 32 0 0 
224 0 0 128 0 0 192 0 0 96 0 0 128 0 0 160 0 0 224 0 0 255 0 0 32 0 0 128 0 0 
128 0 0 192 0 0 96 0 0 128 0 0 160 0 0 224 0 0 255 0 0 32 0 0 128 0 0 160 0 0 
192 0 0 96 0 0 128 0 0 160 0 0 224 0 0 255 0 0 32 0 0 128 0 0 160 0 0 96 0 0 
