P3
10 10
255
178 114 242 255 178 82 114 242 178 82 146 255 242 114 178 210 82 242 146 255 178 255 114 82 178 210 210 242 178 146 
146 255 210 178 242 114 210 255 82 255 114 210 255 178 146 82 242 146 178 114 255 210 82 178 146 210 114 210 255 255 
82 242 146 178 114 255 210 82 178 146 210 114 210 255 255 178 114 242 255 178 82 114 242 178 82 146 255 242 114 178 
210 82 242 146 255 178 255 114 82 178 210 210 242 178 146 146 255 210 178 242 114 210 255 82 255 114 210 255 178 146 
114 178 146 255 210 242 146 146 178 242 82 178 82 242 255 178 114 242 255 178 82 114 242 178 82 146 255 242 114 178 
242 114 178 210 82 242 146 255 178 255 114 82 178 210 210 82 242 146 178 114 255 210 82 178 146 210 114 210 255 255 
146 255 178 255 114 82 178 210 210 242 178 146 146 255 210 178 242 114 210 255 82 255 114 210 255 178 146 82 242 146 
255 114 82 178 210 210 242 178 146 146 255 210 178 242 114 210 255 82 255 114 210 255 178 146 82 242 146 178 114 255 
178 210 210 242 178 146 146 255 210 178 242 114 210 255 82 255 114 210 255 178 146 82 242 146 178 114 255 210 82 178 
242 178 146 146 255 210 178 242 114 210 255 82 255 114 210 255 178 146 82 242 146 178 114 255 210 82 178 146 255 178 
