P3
10 10
255
135 120 94 204 182 141 196 175 136 134 119 93 148 132 103 123 110 85 255 229 179 143 127 99 203 181 141 192 170 133 
240 214 166 210 187 145 255 236 183 167 148 116 216 192 150 178 159 123 141 126 98 111 99 77 172 154 119 255 252 196 
178 159 123 141 126 98 111 99 77 172 154 119 255 252 196 135 120 94 204 182 141 196 175 136 134 119 93 148 132 103 
123 110 85 255 229 179 143 127 99 203 181 141 192 170 133 240 214 166 210 187 145 255 236 183 167 148 116 216 192 150 
141 126 98 255 231 179 135 120 94 124 110 86 208 185 144 135 120 94 204 182 141 196 175 136 134 119 93 148 132 103 
148 132 103 123 110 85 255 229 179 143 127 99 203 181 141 178 159 123 141 126 98 111 99 77 172 154 119 255 252 196 
255 229 179 143 127 99 203 181 141 192 170 133 240 214 166 210 187 145 255 236 183 167 148 116 216 192 150 178 159 123 
143 127 99 203 181 141 192 170 133 240 214 166 210 187 145 255 236 183 167 148 116 216 192 150 178 159 123 141 126 98 
203 181 141 192 170 133 240 214 166 210 187 145 255 236 183 167 148 116 216 192 150 178 159 123 141 126 98 111 99 77 
192 170 133 240 214 166 210 187 145 255 236 183 167 148 116 216 192 150 178 159 123 141 126 98 111 99 77 255 229 179 
