P3
10 10
255
192 128 96 128 160 160 224 64 32 96 255 128 160 32 192 192 64 128 32 96 255 64 192 128 255 128 32 128 64 192 
160 224 255 96 160 64 160 32 128 128 64 224 32 192 96 255 128 96 224 64 160 160 255 32 128 192 64 96 224 160 
192 64 128 32 96 255 64 192 128 255 128 32 128 64 192 160 224 255 96 160 64 160 32 128 128 64 224 32 192 96 
255 128 96 224 64 160 160 255 32 128 192 64 96 224 160 192 128 96 128 160 160 224 64 32 96 255 128 160 32 192 
192 64 128 32 96 255 64 192 128 255 128 32 128 64 192 32 192 255 192 32 128 96 96 128 255 160 192 64 128 96 
160 224 255 96 160 64 160 32 128 128 64 224 32 192 96 128 160 160 224 64 32 96 255 128 160 32 192 192 64 128 
32 192 96 255 128 96 224 64 160 160 255 32 128 192 64 96 224 160 192 128 96 128 160 160 224 64 32 96 255 128 
128 64 224 32 192 96 255 128 96 224 64 160 160 255 32 128 192 64 96 224 160 192 128 96 128 160 160 224 64 32 
160 32 128 128 64 224 32 192 96 255 128 96 224 64 160 160 255 32 128 192 64 96 224 160 192 128 96 128 160 160 
96 255 128 160 32 128 128 64 224 32 192 96 255 128 96 224 64 160 160 255 32 128 192 64 96 224 160 192 128 96 
