P3
10 10
255
192 128 96 96 224 160 128 192 64 160 255 32 224 64 160 255 128 96 32 192 96 128 64 224 160 32 128 96 255 128 
128 160 160 192 128 96 96 224 160 128 192 64 160 255 32 224 64 160 255 128 96 32 192 96 128 64 224 160 32 128 
224 64 32 128 160 160 192 128 96 96 224 160 128 192 64 160 255 32 224 64 160 255 128 96 32 192 96 128 64 224 
96 255 128 224 64 32 128 160 160 192 128 96 96 224 160 128 192 64 160 255 32 224 64 160 255 128 96 32 192 96 
192 64 128 160 32 192 96 255 128 224 64 32 128 160 160 32 192 96 128 64 224 160 32 128 96 160 64 160 224 255 
64 128 96 255 160 192 96 96 128 192 32 128 32 192 255 128 64 192 255 128 32 64 192 128 32 96 255 192 64 128 
160 32 192 96 255 128 224 64 32 128 160 160 192 128 96 96 224 160 128 192 64 160 255 32 224 64 160 255 128 96 
32 192 96 128 64 224 160 32 128 96 160 64 160 224 255 128 64 192 255 128 32 64 192 128 32 96 255 192 64 128 
96 224 160 128 192 64 160 255 32 224 64 160 255 128 96 32 192 96 128 64 224 160 32 128 96 160 64 160 224 255 
128 64 192 255 128 32 64 192 128 32 96 255 192 64 128 160 32 192 96 255 128 224 64 32 128 160 160 192 128 96 
