P3
10 10
255
0 0 0 0 0 0 0 0 0 0 0 0 0 0 0 0 0 0 0 0 0 0 0 0 0 0 0 0 0 0 
0 0 0 135 161 106 143 151 103 159 127 135 165 122 147 135 125 145 135 113 138 135 107 123 126 132 139 0 0 0 
0 0 0 124 135 134 152 117 108 159 135 119 153 156 155 143 144 145 147 139 110 127 141 119 125 123 155 0 0 0 
0 0 0 141 131 140 157 109 114 148 122 127 134 152 163 139 154 143 151 171 88 135 171 103 147 119 151 0 0 0 
0 0 0 157 129 146 157 119 124 148 109 129 118 136 163 119 142 149 147 139 110 127 141 119 125 123 155 0 0 0 
0 0 0 159 115 140 153 131 124 154 129 115 120 150 137 105 157 133 141 123 126 147 105 129 131 132 139 0 0 0 
0 0 0 164 123 112 158 141 118 150 161 116 128 185 108 126 193 94 165 149 106 189 113 118 155 136 119 0 0 0 
0 0 0 164 137 110 150 160 122 134 189 112 138 203 88 169 181 84 197 143 102 177 131 116 131 126 134 0 0 0 
0 0 0 150 160 122 134 189 112 138 203 88 169 181 84 197 143 102 177 131 116 131 126 134 117 103 154 0 0 0 
0 0 0 0 0 0 0 0 0 0 0 0 0 0 0 0 0 0 0 0 0 0 0 0 0 0 0 0 0 0 
