P3
10 10
255
78 14 142 205 78 0 14 142 78 0 46 205 142 14 78 110 0 142 46 205 78 174 14 0 78 110 110 142 78 46 
46 174 110 78 142 14 110 205 0 174 14 110 205 78 46 0 142 46 78 14 174 110 0 78 46 110 14 110 174 205 
0 142 46 78 14 174 110 0 78 46 110 14 110 174 205 78 14 142 205 78 0 14 142 78 0 46 205 142 14 78 
110 0 142 46 205 78 174 14 0 78 110 110 142 78 46 46 174 110 78 142 14 110 205 0 174 14 110 205 78 46 
14 78 46 205 110 142 46 46 78 142 0 78 0 142 205 78 14 142 205 78 0 14 142 78 0 46 205 142 14 78 
142 14 78 110 0 142 46 205 78 174 14 0 78 110 110 0 142 46 78 14 174 110 0 78 46 110 14 110 174 205 
46 205 78 174 14 0 78 110 110 142 78 46 46 174 110 78 142 14 110 205 0 174 14 110 205 78 46 0 142 46 
174 14 0 78 110 110 142 78 46 46 174 110 78 142 14 110 205 0 174 14 110 205 78 46 0 142 46 78 14 174 
78 110 110 142 78 46 46 174 110 78 142 14 110 205 0 174 14 110 205 78 46 0 142 46 78 14 174 110 0 78 
142 78 46 46 174 110 78 142 14 110 205 0 174 14 110 205 78 46 0 142 46 78 14 174 110 0 78 46 205 78 
