P3
10 10
255
0 0 0 0 0 0 0 0 0 0 0 0 0 0 0 0 0 0 0 0 0 0 0 0 0 0 0 0 0 0 
0 0 0 0 0 0 0 0 0 0 0 0 0 0 0 0 0 0 0 0 0 0 0 0 0 0 0 0 0 0 
0 0 0 0 0 0 180 75 40 220 167 0 160 255 251 163 136 180 195 175 0 68 179 84 0 0 0 0 0 0 
0 0 0 0 0 0 223 12 52 132 96 163 116 148 239 143 255 191 179 255 0 155 255 0 0 0 0 0 0 0 
0 0 0 0 0 0 179 75 92 196 31 83 8 152 255 71 88 239 203 135 0 68 155 104 0 0 0 0 0 0 
0 0 0 0 0 0 191 135 112 168 64 103 80 108 199 0 220 163 136 12 188 171 0 131 0 0 0 0 0 0 
0 0 0 0 0 0 180 108 136 172 192 88 56 255 80 64 255 64 232 198 8 255 51 108 0 0 0 0 0 0 
0 0 0 0 0 0 184 124 112 56 255 160 116 255 32 204 255 0 255 115 88 255 132 68 0 0 0 0 0 0 
0 0 0 0 0 0 0 0 0 0 0 0 0 0 0 0 0 0 0 0 0 0 0 0 0 0 0 0 0 0 
0 0 0 0 0 0 0 0 0 0 0 0 0 0 0 0 0 0 0 0 0 0 0 0 0 0 0 0 0 0 
