P3
10 10
255
192 192 192 255 255 255 192 192 192 255 255 255 192 192 192 192 192 192 255 255 255 224 224 224 160 160 160 192 192 192 
224 224 224 192 192 192 255 255 255 224 224 224 255 255 255 192 192 192 224 224 224 160 160 160 160 160 160 255 255 255 
192 192 192 224 224 224 160 160 160 160 160 160 255 255 255 192 192 192 255 255 255 192 192 192 255 255 255 192 192 192 
192 192 192 255 255 255 224 224 224 160 160 160 192 192 192 224 224 224 192 192 192 255 255 255 224 224 224 255 255 255 
128 128 128 255 255 255 128 128 128 192 192 192 255 255 255 192 192 192 255 255 255 192 192 192 255 255 255 192 192 192 
192 192 192 192 192 192 255 255 255 224 224 224 160 160 160 192 192 192 224 224 224 160 160 160 160 160 160 255 255 255 
255 255 255 224 224 224 160 160 160 192 192 192 224 224 224 192 192 192 255 255 255 224 224 224 255 255 255 192 192 192 
224 224 224 160 160 160 192 192 192 224 224 224 192 192 192 255 255 255 224 224 224 255 255 255 192 192 192 224 224 224 
160 160 160 192 192 192 224 224 224 192 192 192 255 255 255 224 224 224 255 255 255 192 192 192 224 224 224 160 160 160 
192 192 192 224 224 224 192 192 192 255 255 255 224 224 224 255 255 255 192 192 192 224 224 224 160 160 160 255 255 255 
